<svg xmlns="http://www.w3.org/2000/svg" xmlns:xlink="http://www.w3.org/1999/xlink" width="48" height="48" viewBox="0 0 48 48">
  <defs>
    <clipPath id="clip-blue_icon_48px">
      <rect width="48" height="48"/>
    </clipPath>
  </defs>
  <g id="blue_icon_48px" clip-path="url(#clip-blue_icon_48px)">
    <g id="Group_3761" data-name="Group 3761" transform="translate(0 0)">
      <path id="Ellipse_2_copy_4" data-name="Ellipse 2 copy 4" d="M-92.873,122.917a21.189,21.189,0,0,1-2.217-1.929h0a20.768,20.768,0,0,1,0-29.351c.492-.489.99-.948,1.5-1.374l.024-.369.069-1.026h-.021l-1.047-.063-1.992-.12c-.261.237-.519.483-.771.735a24,24,0,0,0,0,33.932h0a24.123,24.123,0,0,0,2.826,2.421l-.225-.9v-.024h0l-.351-1.4,1.4-.339Zm29.486-33.506A24,24,0,0,0-92.7,85.793l1.047.063h.012l1.44.084-.1,1.449-.048.693a20.764,20.764,0,0,1,28.165,8.307,20.775,20.775,0,0,1,2.34,7.149l.765.726.753.711.015-.018.714-.768,1.011-1.086A23.9,23.9,0,0,0-63.388,89.411Zm6.2,18.9-.018.018h0l-.984,1.056-1.05-.993-.489-.477A20.76,20.76,0,0,1-82.04,126.994a20.77,20.77,0,0,1-7.026-1.821l-1.236.3-1.008.243v.024l.255,1.014.318,1.263A24,24,0,0,0-58.72,116.746a23.981,23.981,0,0,0,2.331-9.3Z" transform="translate(104.353 -82.379)" fill="#1e5fbb" fill-rule="evenodd"/>
      <path id="Path_1828" data-name="Path 1828" d="M-73.035,93.469l-.069-.228a2.743,2.743,0,0,0-.993-1.266,21.65,21.65,0,0,0-2.391-1.335l-8.97-4.977a2.5,2.5,0,0,0-.7-.276,3.049,3.049,0,0,0-1.434,0,2.665,2.665,0,0,0-.705.276l-8.916,4.95a22.83,22.83,0,0,0-2.5,1.4,2.7,2.7,0,0,0-1.113,2.175v12.349a2.7,2.7,0,0,0,1.4,2.355l10.627,5.88a4.984,4.984,0,0,0,1.2.558,3,3,0,0,0,.7.084,3.43,3.43,0,0,0,.843-.111,4.489,4.489,0,0,0,1.05-.5l10.654-5.91a2.7,2.7,0,0,0,1.413-2.364V94.186A2.651,2.651,0,0,0-73.035,93.469Zm-23.215-1,9.145-5.049a1.064,1.064,0,0,1,.174-.018,1.423,1.423,0,0,1,.447.087l9.033,5.01a22.137,22.137,0,0,1,2.172,1.2.666.666,0,0,1,.18.21l.009.021L-86.2,100.3h-1.374l-11-6.453c.024-.03.024-.087.048-.105A21.887,21.887,0,0,1-96.25,92.473Zm-1.077,15.175V97.1l8.637,5.145v10.186Zm11.638,5.142V102.6l9.336-5.5v10.5Z" transform="translate(111.411 -76.537)" fill="#1e5fbb"/>
    </g>
  </g>
</svg>
